<?xml version="1.0" encoding="utf-8"?>
<!-- Generator: Adobe Illustrator 15.0.0, SVG Export Plug-In  -->
<!DOCTYPE svg PUBLIC "-//W3C//DTD SVG 1.1//EN" "http://www.w3.org/Graphics/SVG/1.1/DTD/svg11.dtd" [
	<!ENTITY ns_flows "http://ns.adobe.com/Flows/1.0/">
]>
<svg version="1.1"
	 xmlns="http://www.w3.org/2000/svg" xmlns:xlink="http://www.w3.org/1999/xlink" xmlns:a="http://ns.adobe.com/AdobeSVGViewerExtensions/3.0/"
	 x="0px" y="0px" width="40px" height="27px" viewBox="0 -0.027 40 27" enable-background="new 0 -0.027 40 27"
	 xml:space="preserve">
<defs>
</defs>
<path fill="none" stroke="#F0F0F3" stroke-linejoin="round" stroke-miterlimit="10" d="M34,20.287c1.287,0,3.563-0.083,4.067-0.083
	c0.503,0,0.57-1.123,0.57-1.906s0-2.204,0-3c0-1.011,0.086-1.506-0.236-1.862c-1.092-1.203-1.528-1.999-3.916-3.832
	c-1.202-0.923-2.577-1.032-3.294-1.683c-0.201-0.182-0.383-0.361-0.537-0.526c-0.416-0.45-3.104-3.216-5.006-4.867
	c-0.392-0.34-0.704-0.602-0.981-0.809C24.019,1.236,22.85,0.5,22,0.5c-1,0-18.168,0-22,0"/>
<circle fill="none" stroke="#F0F0F3" stroke-linejoin="round" stroke-miterlimit="10" cx="30.022" cy="20.104" r="3.868"/>
<path fill="none" stroke="#F0F0F3" stroke-linejoin="round" stroke-miterlimit="10" d="M19,23.473c1.287,0,3.075,0,3.579,0
	c0.503,0,0.921-4.5,0.921-5.5c0-0.783-1.178-1.644-1.5-2c-1.092-1.203-3.512-1.5-5-1.5c-1.486,0-3.283-0.348-4-0.999
	c-0.201-0.182-5.488-6-9.488-6c-1,0-1-0.001-3-0.001"/>
<path fill="none" stroke="#F0F0F3" stroke-linejoin="round" stroke-miterlimit="10" d="M0.553,22.928c3.267,0,5.97,0,6.307,0
	c0.325,0,0.653,0.037,0.965,0.09c0.548,0.094,1.046,0.241,1.384,0.329"/>
<circle fill="none" stroke="#F0F0F3" stroke-linejoin="round" stroke-miterlimit="10" cx="14.534" cy="22.605" r="3.868"/>
<line fill="none" stroke="#F0F0F3" stroke-linejoin="round" stroke-miterlimit="10" x1="26" y1="19.973" x2="24" y2="19.973"/>
</svg>
