<svg width="286" height="49" xmlns="http://www.w3.org/2000/svg">

 <g>
  <title>background</title>
  <rect fill="none" id="canvas_background" height="51" width="288" y="-1" x="-1"/>
 </g>
 <g>
  <title>Layer 1</title>
  <g stroke="null" id="svg_1">
   <path stroke="null" id="svg_2" d="m87.203,47.092l-16.654,0l11.768,-45.092l20.385,0c5.977,0.063 8.934,0.255 11.442,1.213c3.537,1.47 5.851,4.407 5.851,9.261c0,3.449 -1.479,8.175 -3.666,11.499c-4.822,7.281 -10.479,7.409 -18.903,7.535l-6.172,0l-4.051,15.584l0,0zm6.044,-23.12l1.222,0c1.737,0 4.051,-0.066 5.66,-1.278c1.671,-1.341 3.343,-5.623 3.343,-8.941c0,-4.152 -2.958,-4.215 -5.015,-4.215l-1.479,0l-3.731,14.434l0,0z" fill="#858688"/>
   <path stroke="null" id="svg_3" d="m151.667,39.236c-1.284,2.299 -3.086,4.471 -5.335,5.878c-3.473,2.17 -9.005,2.936 -13.699,2.936c-6.557,0 -10.415,-1.66 -12.41,-3.512c-2.188,-2.172 -3.086,-5.302 -3.086,-8.431c0,-6.644 2.831,-14.627 8.038,-18.396c3.149,-2.234 7.91,-3.513 13.825,-3.513c8.616,0 16.204,2.554 16.204,12.199c0,1.854 -0.32,3.706 -0.772,5.495c-0.578,2.554 -1.414,5.046 -2.765,7.344l0,0zm-10.479,-15.967c0,-0.702 0,-2.937 -2.573,-2.937c-2.634,0 -4.244,2.937 -5.658,8.877c-0.581,2.364 -1.674,7.153 -1.674,9.324c0,1.151 0.195,1.789 0.452,2.236c0.386,0.576 1.158,1.086 2.059,1.086c2.121,0 3.15,-2.236 3.534,-3.002c1.157,-2.618 1.997,-5.557 2.767,-8.879c0.64,-2.682 1.093,-5.237 1.093,-6.705l0,0z" fill="#858688"/>
   <polygon stroke="null" id="svg_4" points="169.16600036621094,47.092002868652344 154.37400817871094,47.092002868652344 166.1439971923828,2.0000001192092896 180.93099975585938,2.0000001192092896 169.16600036621094,47.092002868652344 " fill="#858688"/>
   <path stroke="null" id="svg_5" d="m212.073,36.362c-0.447,1.341 -1.284,3.898 -3.535,6.259c-5.146,5.493 -13.309,5.493 -15.496,5.493c-7.461,0 -16.461,-1.275 -16.461,-11.433c0,-3.767 1.543,-10.603 3.856,-14.306c4.31,-6.898 11.961,-8.176 18.265,-8.176c5.078,0 15.945,0.576 15.945,10.028c0,0.447 0,0.767 -0.128,1.469l-14.084,0c0.192,-1.022 0.321,-1.724 0.321,-2.492c0,-3.129 -2.121,-3.129 -2.442,-3.129c-0.706,0 -2.377,0.319 -3.986,3.514c-1.738,3.512 -3.859,12.007 -3.859,14.944c0,3.386 2.316,3.386 2.573,3.386c0.963,0 2.637,-0.574 3.858,-2.937c0.451,-0.96 0.642,-1.726 0.835,-2.62l14.338,0l0,0z" fill="#858688"/>
   <path stroke="null" id="svg_6" d="m248.206,41.662c-0.321,1.087 -0.516,1.916 -0.516,3.131c0,1.022 0.207,2.3 0.207,2.3l-14.071,0c-0.075,0 -1.281,-0.607 -1.311,-2.17c-0.013,-0.64 0.194,-1.47 0.385,-2.044c-0.835,1.149 -1.604,2.236 -3.792,3.384c-2.445,1.277 -4.695,1.599 -6.56,1.599c-1.479,0 -2.957,-0.193 -4.308,-0.704c-1.477,-0.511 -3.923,-1.79 -3.923,-6.132c0,-1.085 0.129,-2.109 0.388,-3.002c1.412,-6.129 5.915,-7.919 7.715,-8.558c3.986,-1.469 10.351,-2.043 14.724,-2.172l0.13,-0.573c0.256,-0.895 0.516,-1.79 0.771,-2.684c0.129,-0.512 0.26,-1.021 0.26,-1.533c0,-1.278 -0.646,-1.98 -1.995,-1.98c-2.572,0 -3.343,3.257 -3.728,4.727l-14.341,0.163c0.048,-0.18 0.098,-0.533 0.153,-0.729c0.675,-2.442 1.979,-6.011 6.92,-8.375c4.18,-1.917 9.711,-2.109 11.637,-2.109c2.252,0 4.439,0.192 6.626,0.576c2.12,0.445 8.874,1.659 8.874,8.365c0,1.534 -0.32,3.003 -0.581,4.471l-3.664,14.049l0,0zm-12.41,-9.26c-1.609,0.064 -3.923,0.127 -5.594,1.852c-0.903,0.959 -1.543,2.555 -1.543,3.834c0,1.789 1.091,2.49 2.377,2.49c1.029,0 1.864,-0.511 2.444,-1.085c0.58,-0.638 0.706,-1.085 1.222,-2.937l1.094,-4.154l0,0z" fill="#858688"/>
   <path stroke="null" id="svg_7" d="m265.767,47.092l-14.726,0l8.358,-31.936l14.726,0l-2.059,7.792c1.607,-3.001 4.308,-8.174 10.095,-8.174c1.222,0 1.8,0.255 2.509,0.51l-2.896,11.05c-0.963,-0.511 -2.119,-1.214 -4.371,-1.214c-2.446,0 -4.628,0.895 -6.043,2.874c-0.966,1.341 -1.416,3.003 -2.06,5.493l-3.533,13.605l0,0z" fill="#858688"/>
   <path stroke="null" id="svg_8" d="m60.128,2l-44.052,0c-3.003,0 -5.213,1.455 -5.925,4.209l-9.894,37.859c-0.257,1.268 0.12,2.063 1.26,2.165c0.857,0.073 1.453,-0.226 2.406,-1.892l0,0.007c10.789,-19.363 32.551,-34.867 58.721,-39.834c-22.784,12.432 -32.076,31.089 -34.998,38.936c-0.295,0.855 -0.792,1.851 -0.196,2.812c0.302,0.485 0.957,0.831 1.795,0.831c0.84,0 20.015,0 20.015,0c3.001,0 5.004,-1.439 5.718,-4.193l9.373,-35.914c0.714,-2.756 -1.222,-4.986 -4.223,-4.986l0,0z" fill="#C2001F"/>
  </g>
 </g>
</svg>