<svg width="104" height="104" viewBox="0 0 104 104" fill="none" xmlns="http://www.w3.org/2000/svg">
<path d="M59.1859 54.0923C61.0197 57.1146 63.4056 59.3362 67.6254 59.3362C71.1703 59.3362 73.4348 57.5479 73.4348 55.0769C73.4348 52.1158 71.1081 51.067 67.2063 49.3443L65.0675 48.4181C58.894 45.7633 54.7927 42.4375 54.7927 35.4068C54.7927 28.9303 59.6815 24 67.3219 24C72.7613 24 76.6718 25.9109 79.4898 30.9141L72.8278 35.2317C71.361 32.577 69.7786 31.5311 67.3219 31.5311C64.8161 31.5311 63.2279 33.1356 63.2279 35.2317C63.2279 37.8223 64.8175 38.8711 68.4881 40.4756L70.6269 41.4004C77.8959 44.5468 82 47.7544 82 54.966C82 62.7407 75.9493 67 67.8234 67C59.8781 67 54.745 63.1783 52.2334 58.1692L59.1859 54.0923ZM28.964 54.8406C30.308 57.2474 31.5306 59.2822 34.47 59.2822C37.2807 59.2822 39.0539 58.1722 39.0539 53.856V24.493H47.609V53.9727C47.609 62.9143 42.4152 66.984 34.8341 66.984C27.9842 66.984 24.0174 63.4058 22 59.0962L28.964 54.8406Z" fill="#404040"/>
<path d="M41.9467 89.24H42.8867V88H46.7967V89.24H47.7367L47.8567 86.96H47.2567V81H43.3567L42.3567 86.96H41.8167L41.9467 89.24ZM44.2967 82.04H46.1567V86.96H43.4567L44.2967 82.04ZM49.3607 88C50.7107 88 51.3407 87.38 51.4307 86.1L51.7107 82.04H53.6807V88H54.7807V81H50.7307L50.3607 86C50.3107 86.73 49.9207 86.96 49.3607 86.96V88ZM61.8092 88V81H59.3592C58.0292 81 57.2892 81.73 57.2892 82.93C57.2892 83.89 57.7692 84.55 58.6492 84.78L56.6292 88H57.9292L59.8992 84.86H60.7092V88H61.8092ZM60.7092 83.82H59.3292C58.7992 83.82 58.4092 83.56 58.4092 82.93C58.4092 82.3 58.7992 82.04 59.3292 82.04H60.7092V83.82ZM4.27106 101V95.04H7.11106V101H8.21106V94H3.17106V101H4.27106ZM12.2949 101V98.14H13.7049C15.0949 98.14 15.8749 97.25 15.8749 96.07C15.8749 94.9 15.0949 94 13.7049 94H11.1949V101H12.2949ZM12.2949 95.04H13.7549C14.3949 95.04 14.7549 95.42 14.7549 96.07C14.7549 96.72 14.3949 97.1 13.7549 97.1H12.2949V95.04ZM17.7536 97.5C17.7536 99.89 19.2536 101.08 20.9636 101.08C22.6736 101.08 24.1736 99.89 24.1736 97.5C24.1736 95.11 22.6736 93.92 20.9636 93.92C19.2536 93.92 17.7536 95.11 17.7536 97.5ZM18.8736 97.5C18.8736 95.78 19.8436 94.96 20.9636 94.96C22.0836 94.96 23.0536 95.78 23.0536 97.5C23.0536 99.22 22.0836 100.04 20.9636 100.04C19.8436 100.04 18.8736 99.22 18.8736 97.5ZM27.825 101V95.04H30.985V94H26.725V101H27.825ZM34.2179 101V98.14H35.6279C37.0179 98.14 37.7979 97.25 37.7979 96.07C37.7979 94.9 37.0179 94 35.6279 94H33.1179V101H34.2179ZM34.2179 95.04H35.6779C36.3179 95.04 36.6779 95.42 36.6779 96.07C36.6779 96.72 36.3179 97.1 35.6779 97.1H34.2179V95.04ZM40.3766 101L40.9566 99.26H43.4566L44.0366 101H45.1566L42.7266 94H41.6866L39.2566 101H40.3766ZM42.2066 95.39L43.1266 98.22H41.2866L42.2066 95.39ZM48.3906 101V96.28L49.9406 100.36H50.7206L52.2706 96.28V101H53.3706V94H52.0706L50.3306 98.66L48.5906 94H47.2906V101H48.3906ZM57.4496 101V96.28L58.9996 100.36H59.7796L61.3296 96.28V101H62.4296V94H61.1296L59.3896 98.66L57.6496 94H56.3496V101H57.4496ZM66.5886 101L69.4586 95.98V101H70.5586V94H69.3786L66.5086 99.04V94H65.4086V101H66.5886ZM73.1098 97.5C73.1098 99.87 74.6698 101.08 76.3498 101.08C77.8398 101.08 78.8198 100.29 79.1798 98.96L78.1398 98.7C77.7898 99.59 77.2998 100.04 76.3498 100.04C75.1698 100.04 74.2298 99.22 74.2298 97.5C74.2298 95.78 75.1698 94.96 76.3498 94.96C77.2998 94.96 77.7898 95.41 78.1398 96.3L79.1798 96.04C78.8198 94.71 77.8398 93.92 76.3498 93.92C74.6698 93.92 73.1098 95.13 73.1098 97.5ZM82.7229 95.04V101H83.8229V95.04H85.7829V94H80.7629V95.04H82.7229ZM87.5071 97.5C87.5071 99.89 89.0071 101.08 90.7171 101.08C92.4271 101.08 93.9271 99.89 93.9271 97.5C93.9271 95.11 92.4271 93.92 90.7171 93.92C89.0071 93.92 87.5071 95.11 87.5071 97.5ZM88.6271 97.5C88.6271 95.78 89.5971 94.96 90.7171 94.96C91.8371 94.96 92.8071 95.78 92.8071 97.5C92.8071 99.22 91.8371 100.04 90.7171 100.04C89.5971 100.04 88.6271 99.22 88.6271 97.5ZM99.0785 101C100.468 101 101.278 100.26 101.278 98.94C101.278 98.13 100.878 97.46 100.208 97.18C100.618 96.95 100.918 96.38 100.918 95.83C100.918 94.62 100.118 94 98.9585 94H96.4785V101H99.0785ZM97.5785 97.8H98.9285C99.7385 97.8 100.158 98.17 100.158 98.88C100.158 99.59 99.7385 99.96 98.9285 99.96H97.5785V97.8ZM97.5785 95.04H98.8585C99.4885 95.04 99.8185 95.33 99.8185 95.9C99.8185 96.47 99.4885 96.76 98.8585 96.76H97.5785V95.04Z" fill="black"/>
</svg>
