<svg width="104" height="104" viewBox="0 0 104 104" fill="none" xmlns="http://www.w3.org/2000/svg">
<path d="M59.1859 54.0923C61.0197 57.1146 63.4056 59.3362 67.6254 59.3362C71.1703 59.3362 73.4348 57.5479 73.4348 55.0769C73.4348 52.1158 71.1081 51.067 67.2063 49.3443L65.0675 48.4181C58.894 45.7633 54.7927 42.4375 54.7927 35.4068C54.7927 28.9303 59.6815 24 67.3219 24C72.7613 24 76.6718 25.9109 79.4898 30.9141L72.8278 35.2317C71.361 32.577 69.7786 31.5311 67.3219 31.5311C64.8161 31.5311 63.2279 33.1356 63.2279 35.2317C63.2279 37.8223 64.8175 38.8711 68.4881 40.4756L70.6269 41.4004C77.8959 44.5468 82 47.7544 82 54.966C82 62.7407 75.9493 67 67.8234 67C59.8781 67 54.745 63.1783 52.2334 58.1692L59.1859 54.0923ZM28.964 54.8406C30.308 57.2474 31.5306 59.2822 34.47 59.2822C37.2807 59.2822 39.0539 58.1722 39.0539 53.856V24.493H47.609V53.9727C47.609 62.9143 42.4152 66.984 34.8341 66.984C27.9842 66.984 24.0174 63.4058 22 59.0962L28.964 54.8406Z" fill="#404040"/>
<path d="M5.08522 88.364H6.11922V87H10.4202V88.364H11.4542L11.5862 85.856H10.9262V79.3H6.63622L5.53622 85.856H4.94222L5.08522 88.364ZM7.67022 80.444H9.71622V85.856H6.74622L7.67022 80.444ZM13.2407 87C14.7257 87 15.4187 86.318 15.5177 84.91L15.8257 80.444H17.9927V87H19.2027V79.3H14.7477L14.3407 84.8C14.2857 85.603 13.8567 85.856 13.2407 85.856V87ZM26.934 87V79.3H24.239C22.776 79.3 21.962 80.103 21.962 81.423C21.962 82.479 22.49 83.205 23.458 83.458L21.236 87H22.666L24.833 83.546H25.724V87H26.934ZM25.724 82.402H24.206C23.623 82.402 23.194 82.116 23.194 81.423C23.194 80.73 23.623 80.444 24.206 80.444H25.724V82.402ZM35.4725 87V83.458H38.5965V87H39.8065V79.3H38.5965V82.314H35.4725V79.3H34.2625V87H35.4725ZM42.6157 83.15C42.6157 85.779 44.2657 87.088 46.1467 87.088C48.0277 87.088 49.6777 85.779 49.6777 83.15C49.6777 80.521 48.0277 79.212 46.1467 79.212C44.2657 79.212 42.6157 80.521 42.6157 83.15ZM43.8477 83.15C43.8477 81.258 44.9147 80.356 46.1467 80.356C47.3787 80.356 48.4457 81.258 48.4457 83.15C48.4457 85.042 47.3787 85.944 46.1467 85.944C44.9147 85.944 43.8477 85.042 43.8477 83.15ZM55.3442 87C56.8732 87 57.7642 86.186 57.7642 84.734C57.7642 83.843 57.3242 83.106 56.5872 82.798C57.0382 82.545 57.3682 81.918 57.3682 81.313C57.3682 79.982 56.4882 79.3 55.2122 79.3H52.4842V87H55.3442ZM53.6942 83.48H55.1792C56.0702 83.48 56.5322 83.887 56.5322 84.668C56.5322 85.449 56.0702 85.856 55.1792 85.856H53.6942V83.48ZM53.6942 80.444H55.1022C55.7952 80.444 56.1582 80.763 56.1582 81.39C56.1582 82.017 55.7952 82.336 55.1022 82.336H53.6942V80.444ZM61.6309 87L64.7879 81.478V87H65.9979V79.3H64.6999L61.5429 84.844V79.3H60.3329V87H61.6309ZM68.6608 82.127C68.6608 84.041 69.6178 84.844 71.0038 84.844C71.5978 84.844 72.3568 84.701 72.8518 84.294V87H74.0618V79.3H72.8518V82.985C72.4228 83.458 71.9718 83.7 71.2238 83.7C70.3438 83.7 69.8708 83.183 69.8708 82.039V79.3H68.6608V82.127ZM78.0674 87V83.227L80.9934 87H82.5444L79.1894 82.743L82.2914 79.3H80.8174L78.0674 82.259V79.3H76.8574V87H78.0674ZM83.9967 83.15C83.9967 85.779 85.6467 87.088 87.5277 87.088C89.4087 87.088 91.0587 85.779 91.0587 83.15C91.0587 80.521 89.4087 79.212 87.5277 79.212C85.6467 79.212 83.9967 80.521 83.9967 83.15ZM85.2287 83.15C85.2287 81.258 86.2957 80.356 87.5277 80.356C88.7597 80.356 89.8267 81.258 89.8267 83.15C89.8267 85.042 88.7597 85.944 87.5277 85.944C86.2957 85.944 85.2287 85.042 85.2287 83.15ZM96.7253 87C98.2543 87 99.1453 86.186 99.1453 84.734C99.1453 83.843 98.7053 83.106 97.9683 82.798C98.4193 82.545 98.7493 81.918 98.7493 81.313C98.7493 79.982 97.8693 79.3 96.5933 79.3H93.8653V87H96.7253ZM95.0753 83.48H96.5603C97.4513 83.48 97.9133 83.887 97.9133 84.668C97.9133 85.449 97.4513 85.856 96.5603 85.856H95.0753V83.48ZM95.0753 80.444H96.4833C97.1763 80.444 97.5393 80.763 97.5393 81.39C97.5393 82.017 97.1763 82.336 96.4833 82.336H95.0753V80.444Z" fill="black"/>
</svg>
