<?xml version="1.0" encoding="UTF-8"?>
<svg width="100px" height="97px" viewBox="0 0 100 97" version="1.1" xmlns="http://www.w3.org/2000/svg" xmlns:xlink="http://www.w3.org/1999/xlink">
    <!-- Generator: Sketch 55.2 (78181) - https://sketchapp.com -->
    <title>rxjs</title>
    <desc>Created with Sketch.</desc>
    <defs>
        <radialGradient cx="78.7636112%" cy="37.8476394%" fx="78.7636112%" fy="37.8476394%" r="125.635113%" gradientTransform="translate(0.787636,0.378476),scale(0.715346,1.000000),translate(-0.787636,-0.378476)" id="radialGradient-1">
            <stop stop-color="#F80090" offset="0%"></stop>
            <stop stop-color="#4D008E" offset="100%"></stop>
        </radialGradient>
        <radialGradient cx="68.7389016%" cy="4.39833672%" fx="68.7389016%" fy="4.39833672%" r="108.040765%" gradientTransform="translate(0.687389,0.043983),scale(0.756460,1.000000),translate(-0.687389,-0.043983)" id="radialGradient-2">
            <stop stop-color="#57008E" offset="0%"></stop>
            <stop stop-color="#5C008E" offset="29.1746283%"></stop>
            <stop stop-color="#F80090" offset="100%"></stop>
        </radialGradient>
        <linearGradient x1="18.2386532%" y1="5.55111512e-14%" x2="81.1591125%" y2="84.3374763%" id="linearGradient-3">
            <stop stop-color="#F70090" offset="0%"></stop>
            <stop stop-color="#E50090" offset="66.9712865%"></stop>
            <stop stop-color="#D6008F" stop-opacity="0.2" offset="82.7147533%"></stop>
            <stop stop-color="#C10090" stop-opacity="0" offset="100%"></stop>
        </linearGradient>
        <linearGradient x1="64.9060589%" y1="71.5585538%" x2="44.2897699%" y2="50%" id="linearGradient-4">
            <stop stop-color="#B2008F" stop-opacity="0.151340138" offset="0%"></stop>
            <stop stop-color="#F70090" stop-opacity="0.4" offset="40.0350765%"></stop>
            <stop stop-color="#F60090" stop-opacity="0.891668" offset="64.8995536%"></stop>
            <stop stop-color="#FF0090" offset="100%"></stop>
        </linearGradient>
    </defs>
    <g id="Page-1" stroke="none" stroke-width="1" fill="none" fill-rule="evenodd">
        <g id="rxjs" fill-rule="nonzero">
            <path d="M6.51766438,61.3770812 C1.39332305,34.132747 14.9360557,7.85722961 46.0190258,4.36180465 C41.7326625,-0.218281927 35.8770346,-0.252697511 33.1828788,0.304445346 C28.4258937,1.82048583 28.5752317,4.89877148 23.1793028,8.8749873 C17.8150171,11.9388401 15.1208655,9.59250711 11.2131818,12.7687311 C7.31386129,15.9212451 10.0347081,23.1582708 8.39932902,24.5652679 C6.77595238,27.3791207 1.74023809,29.8858306 0.82357143,33.4399432 C0.0659956711,37.9851813 2.87984848,41.2319344 2.77162337,45.1280383 C3.0962987,48.3747918 -0.460627707,50.2107223 0.0504112555,52.8421078 C1.58114719,57.1410254 4.53158008,59.7284715 5.92248918,60.9211121 C6.24144863,61.1459105 6.57831566,61.699543 6.51766438,61.3770812 L6.51766438,61.3770812 Z" id="Path" fill="#FF0090"></path>
            <path d="M61.8263637,23.663493 C60.6908148,23.663493 59.7700867,22.7427647 59.7700867,21.6072159 C59.7700867,20.4716671 60.6908148,19.5509389 61.8263637,19.5509389 C62.9619125,19.5509389 63.8826406,20.4716671 63.8826406,21.6072159 C63.8826406,22.7427647 62.9619125,23.663493 61.8263637,23.663493 L61.8263637,23.663493 Z M7.7174377,64.3487531 C2.79297883,40.6706145 18.031342,20.8857873 47.5406492,30.6260471 C64.8560172,40.7557008 86.6380008,40.0961336 87.6200867,33.548125 C90.0445551,25.6983894 76.5811254,9.52215098 56.4512555,5.30137176 C16.5161905,-2.49083604 -5.01312277,40.6706148 7.7174377,64.3487531 L7.7174377,64.3487531 Z" id="Shape" fill="url(#radialGradient-1)"></path>
            <path d="M73.2260172,66.9895535 C79.1558875,67.6319777 84.7846754,66.2088176 90.000909,61.9570859 C82.1203895,70.7471293 72.2667098,75.1666098 60.9606492,76.3692074 C66.3589176,80.9586012 71.5647617,83.0259172 76.5450648,82.1410687 C62.7065367,85.9596836 51.1124793,81.7564566 37.0087607,67.7112004 C36.2702089,71.4921961 40.2635707,77.383073 44.3795879,81.1434625 C20.4977699,70.7897832 18.4040479,38.5368967 47.5255117,30.6032124 C17.3376725,16.0994691 0.268114649,44.2803488 8.65462672,67.3773168 C16.8602878,85.166677 38.7266667,98.8614152 62.6922512,95.8497266 C74.333175,94.4238672 91.7164102,86.3980215 98.8178375,67.3773168 C93.812859,71.8686586 84.8663832,75.7804047 80.8740691,76.0804625 C94.3861906,69.3276488 101.680307,57.8530844 99.6329437,42.170073 C96.8340258,48.833493 93.1411688,53.9510254 88.5219047,57.4657441 C98.3342395,42.170073 96.6504762,34.2642289 89.3877055,25.5754843 C94.5825109,39.8611984 87.8625973,55.7163934 73.2260172,66.9895535 L73.2260172,66.9895535 Z" id="Path" fill="url(#radialGradient-2)"></path>
            <path d="M66.291825,83.447477 C65.2665652,83.2559102 68.6159879,84.8042352 62.1403773,83.0899672 C55.6647672,81.3756992 49.0712898,79.7237281 37.0087607,67.7112004 C36.2702089,71.4921961 40.2635707,77.383073 44.3795879,81.1434625 C55.4907324,88.8925496 47.9343227,85.2682801 64.8640414,91.120891 C66.2225625,88.416743 66.291825,86.013807 66.291825,83.447477 L66.291825,83.447477 Z" id="Path" fill="url(#linearGradient-3)"></path>
            <path d="M44.7661609,22.5980511 C44.7661609,22.5980511 46.2380672,20.4255323 46.811023,19.4457129 C47.513141,18.2450125 48.5913824,16.0564914 48.5913824,16.0564914 C48.5913824,16.0564914 37.2615668,12.3600683 34.4811112,11.9090494 C25.837899,14.1526875 25.8064462,17.7738109 30.6386973,23.3164516 C31.1763596,23.9333347 44.7661609,22.5980511 44.7661609,22.5980511 L44.7661609,22.5980511 Z" id="Path" fill="url(#linearGradient-4)"></path>
        </g>
    </g>
</svg>