<?xml version="1.0" encoding="utf-8"?>
<!-- Generator: Adobe Illustrator 22.1.0, SVG Export Plug-In . SVG Version: 6.00 Build 0)  -->
<svg version="1.1" id="Слой_1" xmlns="http://www.w3.org/2000/svg" xmlns:xlink="http://www.w3.org/1999/xlink" x="0px" y="0px"
	 viewBox="0 0 176.3 176.3" style="enable-background:new 0 0 176.3 176.3;" xml:space="preserve">
<style type="text/css">
	.st0{fill:#FFFFFF;}
</style>
<path class="st0" d="M24,46.3c-4.3,16.1-2.1,33,6.2,47.4C41.4,113,62.2,125,84.4,125c8.4,0,16.7-1.7,24.5-5l32.5,56.3l13-7.5
	l-32.5-56.3c11.2-8.4,19.2-20.1,22.9-33.8c4.3-16.1,2.1-33-6.2-47.4C127.4,12,106.6,0,84.3,0C73.4,0,62.6,2.9,53.1,8.4
	C38.7,16.7,28.3,30.2,24,46.3L24,46.3z M84.3,15c16.9,0,32.7,9.1,41.2,23.8c6.3,11,8,23.8,4.7,36c-3.3,12.3-11.1,22.5-22.1,28.8
	c-7.2,4.2-15.4,6.4-23.7,6.4c-16.9,0-32.7-9.1-41.2-23.8c-6.3-11-8-23.8-4.7-36C41.8,38,49.7,27.7,60.6,21.4
	C67.9,17.2,76.1,15,84.3,15z"/>
</svg>
