<?xml version="1.0" encoding="utf-8"?>
<!-- Generator: Adobe Illustrator 22.1.0, SVG Export Plug-In . SVG Version: 6.00 Build 0)  -->
<svg version="1.1" id="Слой_1" xmlns="http://www.w3.org/2000/svg" xmlns:xlink="http://www.w3.org/1999/xlink" x="0px" y="0px"
	 viewBox="0 0 1000 1000" style="enable-background:new 0 0 1000 1000;" xml:space="preserve">
<style type="text/css">
	.st0{fill:#FFFFFF;}
</style>
<g>
	<path class="st0" d="M910.5,713.4c-22.4-77.6-108-149.1-188-160.9l-20.1-0.3c-7.1-0.1-17.7,2.6-24,6c0,0-16,9.2-30.8,15.5
		c-43.9,19-93.9,29.6-147,29.6c-52.8,0-102.6-10.6-146.3-29.4c-14.9-6.4-31.3-15.8-31.3-15.8c-6.2-3.5-16.9-6.2-24-6l-19.9,0.1
		C199,562.8,114.5,634,90.5,711c0,0-25.6,51.9-29.4,154c-0.3,13.2,10.5,30.1,24.2,37.3c0,0,136.6,87.7,414.6,87.7
		c277.9,0,414.6-87.7,414.6-87.7c13.6-7.4,24.5-25.9,24.2-37.6C935.4,763.1,910.5,713.4,910.5,713.4L910.5,713.4z M837.1,857.4
		c0,0-111.1,57.7-337,57.7c-226,0-337-57.7-337-57.7c-11.2-4.7-19.9-15.9-19.7-24.6c2.9-67.1,23.9-101.3,23.9-101.3
		c19.5-50.7,59.9-97.5,125-104.4l16.2-0.1c5.8,0,14.5,1.8,19.5,4c0,0,13.3,6.2,25.5,10.4c35.5,12.3,104.3,24.5,147.2,24.5
		c43.1,0,109.9-12.2,145.6-24.6c11.9-4.2,25-10.3,25-10.3c5-2.2,13.7-4,19.5-4l16.4,0.1c65,7.7,108.5,54.9,126.7,105.8
		c0,0,20.3,32.7,23.1,99.5C857,840.3,848.2,852.5,837.1,857.4L837.1,857.4z M500,513.5c139,0,251.7-112.7,251.7-251.7
		C751.7,122.7,639,10,500,10S248.3,122.7,248.3,261.7S360.9,513.5,500,513.5L500,513.5z M500,80c100.3,0,181.7,81.3,181.7,181.7
		S600.4,443.4,500,443.4s-181.7-81.3-181.7-181.7S399.6,80,500,80L500,80z"/>
</g>
</svg>
